# xmcd
#
# Track frame offsets:
# 150
# 21676
# 40826
# 57841
# 70363
# 89708
# 105446
# 126413
# 145598
# 166688
# 182523
# 200573
# 218711
# 240333
#
# Disc length: 3390 seconds
#
#
# Revision: 0
# Processed by: cddbd v1.5.1PL2 Copyright (c) Steve Scherf et al.
# Submitted via: FreeRIP 2.931 
#
DISCID=c50d3c0e
DTITLE=Vários - Só MPB Vol. 4
DYEAR=1900
DGENRE=Pop
TTITLE0=Se eu quiser falar com Deus - Gilberto Gil
TTITLE1=Aquarela - Toquinho
TTITLE2=Todo azul do mar - 14 BIS
TTITLE3=Começaria tudo outra vez(ao vivo) - Gozaguinha
TTITLE4=Novo tempo - Ivan Lins
TTITLE5=Tanto amar - Ney Matogrosso
TTITLE6=Lua e Flor - Oswaldo Montenegro
TTITLE7=Apenas um rapaz latino americano - Belchior
TTITLE8=Naquela estação (Leila L) - Adriana Calcanhoto
TTITLE9=Lua e Estrela - Caetano Veloso
TTITLE10=Cálice - Chico Buarque
TTITLE11=Alô, Alô, Marciano - Elis Regina
TTITLE12=Brincar de viver - Maria Bethânia
TTITLE13=Eu te amo - Quarteto em Cy and MPB-4
EXTD=
EXTT0=
EXTT1=
EXTT2=
EXTT3=
EXTT4=
EXTT5=
EXTT6=
EXTT7=
EXTT8=
EXTT9=
EXTT10=
EXTT11=
EXTT12=
EXTT13=
PLAYORDER=
